# Blender v2.79 (sub 0) OBJ File: 'arrow.blend'
# www.blender.org
mtllib arrow.mtl
o Plane
v 1.414214 -0.500000 1.414214
v 0.707107 -0.500000 3.535534
v 0.707107 -0.500000 2.121320
v 0.707107 -0.500000 0.707107
v 1.414213 -0.500000 2.828427
v 0.707107 -0.500000 6.363961
v 1.414214 -0.500000 4.242640
v 0.707107 -0.500000 4.949747
v 0.707107 -0.500000 -2.121320
v 1.414214 -0.500000 -4.242640
v 1.414214 -0.500000 5.656854
v 0.707107 -0.500000 -3.535534
v 0.707107 -0.500000 -4.949747
v 1.414213 -0.500000 -2.828427
v 1.414214 -0.500000 -1.414214
v 0.707107 -0.500000 -0.707107
v 1.414214 -0.500000 0.000000
v 1.414213 -0.500000 7.071068
v 2.121320 -0.500000 6.363961
v 2.828427 -0.500000 7.071068
v 2.121320 -0.500000 -6.363961
v 1.414213 -0.500000 -7.071068
v 2.121320 -0.500000 -7.778174
v 1.414214 -0.500000 -8.485281
v -1.414214 -0.500000 1.414214
v -0.707107 -0.500000 3.535534
v -0.707107 -0.500000 2.121320
v -0.707107 -0.500000 0.707107
v -1.414213 -0.500000 2.828427
v -0.707107 -0.500000 6.363961
v -1.414214 -0.500000 4.242640
v -0.707107 -0.500000 4.949747
v -0.707107 -0.500000 -2.121320
v -1.414214 -0.500000 -4.242640
v -1.414214 -0.500000 5.656854
v -0.707107 -0.500000 -3.535534
v -0.707107 -0.500000 -4.949747
v -1.414213 -0.500000 -2.828427
v -1.414214 -0.500000 -1.414214
v -0.707107 -0.500000 -0.707107
v -1.414213 -0.500000 -0.000000
v -1.414214 -0.500000 7.071067
v -2.121320 -0.500000 6.363961
v 0.500000 0.500000 -7.571068
v -2.121320 -0.500000 -6.363961
v -1.414213 -0.500000 -7.071068
v -2.121320 -0.500000 -7.778174
v -1.414214 -0.500000 -8.485281
v 0.707107 -0.500000 7.778174
v 0.500000 -1.414214 -8.485280
v -0.707107 -0.500000 7.778174
v 1.414214 0.500000 1.414214
v 0.707107 0.500000 3.535534
v 0.707107 0.500000 2.121320
v 0.707107 0.500000 0.707107
v 1.414213 0.500000 2.828427
v 0.707107 0.500000 6.363961
v 1.414214 0.500000 4.242640
v 0.707107 0.500000 4.949747
v 0.707107 0.500000 -2.121320
v 1.414214 0.500000 -4.242640
v 1.414214 0.500000 5.656854
v 0.707107 0.500000 -3.535534
v 0.707107 0.500000 -4.949747
v 1.414213 0.500000 -2.828427
v 1.414214 0.500000 -1.414214
v 0.707107 0.500000 -0.707107
v 1.414214 0.500000 0.000000
v 1.414213 0.500000 7.071068
v 2.121320 0.500000 6.363961
v 2.828427 0.500000 7.071068
v 2.121320 0.500000 -6.363961
v 1.414213 0.500000 -7.071068
v 2.121320 0.500000 -7.778174
v 1.414214 0.500000 -8.485281
v -1.414214 0.500000 1.414214
v -0.707107 0.500000 3.535534
v -0.707107 0.500000 2.121320
v -0.707107 0.500000 0.707107
v -1.414213 0.500000 2.828427
v -0.707107 0.500000 6.363961
v -1.414214 0.500000 4.242640
v -0.707107 0.500000 4.949747
v -0.707107 0.500000 -2.121320
v -1.414214 0.500000 -4.242640
v -1.414214 0.500000 5.656854
v -0.707107 0.500000 -3.535534
v -0.707107 0.500000 -4.949747
v -1.414213 0.500000 -2.828427
v -1.414214 0.500000 -1.414214
v -0.707107 0.500000 -0.707107
v -1.414213 0.500000 -0.000000
v -1.414214 0.500000 7.071067
v -2.121320 0.500000 6.363961
v -0.500000 0.500000 -7.571068
v -2.121320 0.500000 -6.363961
v -1.414213 0.500000 -7.071068
v -2.121320 0.500000 -7.778174
v -1.414214 0.500000 -8.485281
v 0.707107 0.500000 7.778174
v 0.500000 -0.500000 -7.571067
v -0.707107 0.500000 7.778174
v -0.500000 -1.414213 1.414213
v -0.500000 -0.707107 3.535534
v -0.500000 -0.707107 2.121320
v -0.500000 -0.707107 0.707107
v -0.500000 -1.414213 2.828427
v -0.500000 -0.707107 6.363960
v -0.500000 -1.414213 4.242640
v -0.500000 -0.707107 4.949747
v -0.500000 -0.707107 -2.121320
v -0.500000 -1.414214 -4.242640
v -0.500000 -1.414213 5.656854
v -0.500000 -0.707107 -3.535533
v -0.500000 -0.707107 -4.949747
v -0.500000 -1.414214 -2.828427
v -0.500000 -1.414214 -1.414213
v -0.500000 -0.707107 -0.707107
v -0.500000 -1.414213 -0.000000
v -0.500000 -1.414213 7.071068
v -0.500000 -2.121320 6.363960
v -0.500000 -2.828427 7.071067
v -0.500000 -2.121320 -6.363960
v -0.500000 -1.414214 -7.071067
v -0.500001 -2.121321 -7.778174
v -0.500000 -1.414214 -8.485281
v -0.500000 1.414214 1.414214
v -0.500000 0.707107 3.535533
v -0.500000 0.707107 2.121320
v -0.500000 0.707107 0.707107
v -0.500000 1.414214 2.828427
v -0.500000 0.707107 6.363960
v -0.500000 1.414214 4.242640
v -0.500000 0.707107 4.949747
v -0.500000 0.707107 -2.121320
v -0.500000 1.414213 -4.242640
v -0.500000 1.414214 5.656854
v -0.500000 0.707107 -3.535534
v -0.500000 0.707107 -4.949747
v -0.500000 1.414213 -2.828427
v -0.500000 1.414213 -1.414213
v -0.500000 0.707107 -0.707107
v -0.500000 1.414213 0.000000
v -0.500000 1.414214 7.071067
v -0.500000 2.121320 6.363960
v -0.499999 2.828427 7.071068
v -0.500000 2.121320 -6.363960
v -0.500000 1.414213 -7.071068
v -0.500000 2.121320 -7.778174
v -0.500000 -0.707107 7.778174
v 0.500000 1.414213 -8.485280
v -0.500000 0.707107 7.778173
v 0.500000 -1.414213 1.414213
v 0.500000 -0.707107 3.535534
v 0.500000 -0.707107 2.121320
v 0.500000 -0.707107 0.707107
v 0.500000 -1.414213 2.828427
v 0.500000 -0.707107 6.363960
v 0.500000 -1.414213 4.242640
v 0.500000 -0.707107 4.949747
v 0.500000 -0.707107 -2.121320
v 0.500000 -1.414214 -4.242640
v 0.500000 -1.414213 5.656854
v 0.500000 -0.707107 -3.535533
v 0.500000 -0.707107 -4.949747
v 0.500000 -1.414214 -2.828427
v 0.500000 -1.414214 -1.414214
v 0.500000 -0.707107 -0.707107
v 0.500000 -1.414213 -0.000000
v 0.500000 -1.414213 7.071068
v 0.500000 -2.121320 6.363960
v 0.500000 -2.828427 7.071067
v 0.500000 -2.121320 -6.363960
v 0.500000 -1.414214 -7.071067
v 0.499999 -2.121321 -7.778174
v 0.500000 1.414214 1.414213
v 0.500000 0.707107 3.535533
v 0.500000 0.707107 2.121320
v 0.500000 0.707107 0.707107
v 0.500000 1.414214 2.828427
v 0.500000 0.707107 6.363960
v 0.500000 1.414214 4.242640
v 0.500000 0.707107 4.949747
v 0.500000 0.707107 -2.121320
v 0.500000 1.414213 -4.242640
v 0.500000 1.414214 5.656854
v 0.500000 0.707107 -3.535534
v 0.500000 0.707107 -4.949747
v 0.500000 1.414213 -2.828427
v 0.500000 1.414213 -1.414213
v 0.500000 0.707107 -0.707107
v 0.500000 1.414213 0.000000
v 0.500000 1.414214 7.071067
v 0.500000 2.121320 6.363960
v 0.500000 2.828427 7.071068
v 0.500000 2.121320 -6.363960
v 0.500000 1.414213 -7.071068
v 0.500000 2.121320 -7.778175
v 0.500000 -0.707107 7.778174
v -0.500000 1.414213 -8.485280
v 0.500000 0.707107 7.778173
v -2.828427 -0.500000 7.071068
v -0.500000 -0.500000 9.399494
v 0.500000 0.500000 9.399494
v 0.000000 0.000000 9.899495
v -0.500000 0.500000 9.399495
v -0.500000 -0.500000 -7.571067
v -2.828427 0.500000 7.071068
v 0.000000 -0.000000 -7.071067
v 0.500000 -0.500000 9.399494
vt 0.264011 0.328695
vt 0.264011 0.328695
vt 0.264011 0.328695
vt 0.264011 0.328695
vt 0.264011 0.328695
vt 0.264011 0.328695
vt 0.264011 0.328695
vt 0.264011 0.328695
vt 0.263787 0.328685
vt 0.263791 0.328637
vt 0.263991 0.328690
vt 0.263991 0.328694
vt 0.214212 0.864368
vt 0.222371 0.856209
vt 0.261767 0.895605
vt 0.253608 0.903764
vt 0.290723 0.334866
vt 0.291075 0.328985
vt 0.528191 0.331551
vt 0.525993 0.386898
vt 0.264011 0.328695
vt 0.264011 0.328695
vt 0.264011 0.328697
vt 0.264011 0.328697
vt 0.264004 0.328875
vt 0.263965 0.328872
vt 0.264007 0.328711
vt 0.264010 0.328712
vt 0.264013 0.328695
vt 0.264013 0.328696
vt 0.264011 0.328695
vt 0.264011 0.328695
vt 0.266443 0.329293
vt 0.266480 0.328764
vt 0.264236 0.328705
vt 0.264232 0.328753
vt 0.264031 0.328701
vt 0.264032 0.328696
vt 0.127260 0.895605
vt 0.166657 0.856209
vt 0.174816 0.864368
vt 0.135420 0.903764
vt 0.264986 0.539540
vt 0.221499 0.538766
vt 0.259097 0.350166
vt 0.263820 0.350399
vt 0.264024 0.328415
vt 0.264084 0.328420
vt 0.264018 0.328670
vt 0.264013 0.328670
vt 0.263534 0.330646
vt 0.263958 0.330675
vt 0.264011 0.328695
vt 0.264011 0.328695
vt 0.264011 0.328695
vt 0.264011 0.328695
vt 0.262586 0.000144
vt 0.332736 0.001680
vt 0.271686 0.295561
vt 0.264389 0.295164
vt 0.261767 0.777417
vt 0.222371 0.816813
vt 0.214212 0.808654
vt 0.253608 0.769258
vt 0.237239 0.322551
vt 0.236980 0.328445
vt 0.000144 0.333901
vt 0.000144 0.278418
vt 0.135420 0.769258
vt 0.174816 0.808654
vt 0.166657 0.816813
vt 0.127260 0.777417
vt 0.261543 0.328626
vt 0.261579 0.328098
vt 0.264012 0.328693
vt 0.264011 0.328693
vt 0.264009 0.328695
vt 0.264009 0.328695
vt 0.264011 0.328695
vt 0.264011 0.328695
vt 0.264011 0.328695
vt 0.264011 0.328695
vt 0.264011 0.328695
vt 0.264011 0.328695
vt 0.214212 0.769258
vt 0.264759 0.325665
vt 0.264101 0.325619
vt 0.264011 0.328695
vt 0.264011 0.328695
vt 0.243722 0.276484
vt 0.262222 0.323862
vt 0.263856 0.328252
vt 0.263998 0.328655
vt 0.264010 0.328691
vt 0.264011 0.328695
vt 0.264011 0.328695
vt 0.264011 0.328695
vt 0.264011 0.328695
vt 0.264011 0.328695
vt 0.264012 0.328695
vt 0.264014 0.328692
vt 0.264037 0.328661
vt 0.264284 0.328314
vt 0.266936 0.324468
vt 0.294910 0.282215
vt 0.261767 0.816813
vt 0.264011 0.328695
vt 0.264011 0.328695
vt 0.264011 0.328695
vt 0.264008 0.328692
vt 0.263978 0.328664
vt 0.263637 0.328354
vt 0.259844 0.325020
vt 0.217631 0.289544
vt 0.174816 0.769258
vt 0.127260 0.816813
vt 0.222045 0.345299
vt 0.260135 0.330137
vt 0.263656 0.328820
vt 0.263979 0.328706
vt 0.264008 0.328696
vt 0.264011 0.328695
vt 0.264011 0.328695
vt 0.264011 0.328695
vt 0.264011 0.328695
vt 0.264011 0.328695
vt 0.264011 0.328695
vt 0.264009 0.328698
vt 0.263986 0.328722
vt 0.263738 0.328996
vt 0.261067 0.332041
vt 0.232582 0.365881
vt 0.127260 0.856209
vt 0.174816 0.903764
vt 0.286998 0.371470
vt 0.266052 0.332646
vt 0.264191 0.329058
vt 0.264027 0.328729
vt 0.264013 0.328698
vt 0.264011 0.328695
vt 0.264011 0.328695
vt 0.264011 0.328695
vt 0.264011 0.328695
vt 0.264011 0.328695
vt 0.264012 0.328695
vt 0.264014 0.328697
vt 0.264039 0.328715
vt 0.264317 0.328913
vt 0.267405 0.331039
vt 0.301391 0.353694
vt 0.214212 0.903764
vt 0.261767 0.856209
vt 0.317448 0.300270
vt 0.268941 0.326157
vt 0.264464 0.328471
vt 0.264053 0.328675
vt 0.264015 0.328693
vt 0.264012 0.328695
vt 0.264011 0.328695
vt 0.264011 0.328695
vt 0.918137 0.349711
vt 0.907685 0.338998
vt 0.884505 0.407096
vt 0.933027 0.412203
vt 0.923744 0.342430
vt 0.901205 0.308635
vt 0.922199 0.238865
vt 0.926777 0.077413
vt 0.916077 0.296753
vt 0.916918 0.254965
vt 0.884473 0.416247
vt 0.900855 0.482011
vt 0.871713 0.543522
vt 0.897131 0.600376
vt 0.898388 0.631185
vt 0.887593 0.640859
vt 0.893448 0.605316
vt 0.910441 0.652319
vt 0.870944 0.686076
vt 0.904282 0.768485
vt 0.868130 0.913286
vt 0.936516 0.664849
vt 0.862115 0.688417
vt 0.853767 0.487379
vt 0.853785 0.510596
vt 0.833433 0.579141
vt 0.833433 0.476485
vt 0.863264 0.468243
vt 0.861966 0.512091
vt 0.869761 0.478964
vt 0.868604 0.496772
vt 0.877416 0.471879
vt 0.874085 0.499260
vt 0.921723 0.539791
vt 0.925513 0.428484
vt 0.926488 0.476805
vt 0.932851 0.483398
vt 0.931934 0.499076
vt 0.926163 0.500700
vt 0.940130 0.474313
vt 0.936788 0.513130
vt 0.948239 0.490968
vt 0.946357 0.511756
vt 0.971350 0.479091
vt 0.965799 0.571992
vt 0.513895 0.684827
vt 0.515039 0.698000
vt 0.515038 0.711068
vt 0.513895 0.724214
vt 0.516184 0.698105
vt 0.516179 0.710989
vt 0.661668 0.731515
vt 0.637061 0.703903
vt 0.662420 0.676084
vt 0.749009 0.698973
vt 0.750844 0.712300
vt 0.749713 0.714057
vt 0.747785 0.703045
vt 0.748399 0.681574
vt 0.753810 0.723869
vt 0.613359 0.484215
vt 0.658072 0.480750
vt 0.639202 0.456585
vt 0.626431 0.464109
vt 0.633103 0.424898
vt 0.626732 0.451525
vt 0.612169 0.676971
vt 0.611986 0.731041
vt 0.629091 0.947857
vt 0.632778 0.960024
vt 0.643421 0.988537
vt 0.641499 0.957453
vt 0.612994 0.926093
vt 0.651987 0.935965
vt 0.698938 0.586457
vt 0.716059 0.630118
vt 0.566712 0.588531
vt 0.553116 0.635417
vt 0.718411 0.775601
vt 0.705909 0.827146
vt 0.566787 0.820968
vt 0.553121 0.773545
vn -0.7071 0.7071 -0.0000
vn 0.7071 0.7071 -0.0000
vn 0.7071 -0.7071 -0.0000
vn -0.7071 -0.7071 -0.0000
vn -1.0000 0.0000 0.0000
vn 0.0000 -1.0000 0.0000
vn 1.0000 -0.0000 0.0000
vn 0.0000 1.0000 0.0000
vn 0.0000 0.7071 -0.7071
vn 0.0000 0.7071 0.7071
vn 0.7071 0.0000 -0.7071
vn 0.7071 0.0000 0.7071
vn 0.0000 -0.7071 -0.7071
vn 0.0000 -0.7071 0.7071
vn -0.7071 -0.0000 -0.7071
vn -0.7071 0.0000 0.7071
vn 0.7042 -0.7042 0.0900
vn -0.7042 -0.7042 0.0900
vn 0.7042 0.7042 0.0900
vn -0.7042 0.7042 0.0900
vn -0.7060 -0.7060 -0.0558
vn 0.7060 -0.7060 -0.0558
vn 0.7060 0.7060 -0.0558
vn -0.7060 0.7060 -0.0558
usemtl Material.002
s off
f 88/1/1 87/2/1 138/3/1 139/4/1
f 184/5/2 60/6/2 63/7/2 187/8/2
f 3/9/3 155/10/3 156/11/3 4/12/3
f 132/13/1 81/14/1 102/15/1 152/16/1
f 134/17/1 83/18/1 81/19/1 132/20/1
f 187/8/2 63/7/2 64/21/2 188/22/2
f 67/23/2 60/6/2 184/5/2 191/24/2
f 178/25/2 54/26/2 55/27/2 179/28/2
f 91/29/1 142/30/1 135/31/1 84/32/1
f 128/33/1 77/34/1 83/18/1 134/17/1
f 84/32/1 135/31/1 138/3/1 87/2/1
f 78/35/1 129/36/1 130/37/1 79/38/1
f 77/34/1 128/33/1 129/36/1 78/35/1
f 100/39/2 57/40/2 181/41/2 201/42/2
f 181/43/2 57/44/2 59/45/2 183/46/2
f 105/47/4 27/48/4 28/49/4 106/50/4
f 183/46/2 59/45/2 53/51/2 177/52/2
f 79/38/1 130/37/1 142/30/1 91/29/1
f 177/52/2 53/51/2 54/26/2 178/25/2
f 111/53/4 33/54/4 36/55/4 114/56/4
f 108/57/4 30/58/4 32/59/4 110/60/4
f 51/61/4 30/62/4 108/63/4 150/64/4
f 160/65/3 8/66/3 6/67/3 158/68/3
f 199/69/3 158/70/3 6/71/3 49/72/3
f 155/10/3 3/9/3 2/73/3 154/74/3
f 40/75/4 33/54/4 111/53/4 118/76/4
f 16/77/3 168/78/3 161/79/3 9/80/3
f 179/28/2 55/27/2 67/23/2 191/24/2
f 9/80/3 161/79/3 164/81/3 12/82/3
f 154/74/3 2/73/3 8/66/3 160/65/3
f 36/55/4 37/83/4 115/84/4 114/56/4
f 108/63/5 120/85/5 150/64/5
f 110/60/4 32/59/4 26/86/4 104/87/4
f 165/88/3 13/89/3 12/82/3 164/81/3
f 104/87/4 26/86/4 27/48/4 105/47/4
f 4/12/3 156/11/3 168/78/3 16/77/3
f 106/50/4 28/49/4 40/75/4 118/76/4
f 113/90/5 108/57/5 110/60/5
f 109/91/5 110/60/5 104/87/5
f 107/92/5 104/87/5 105/47/5
f 103/93/5 105/47/5 106/50/5
f 119/94/5 106/50/5 118/76/5
f 117/95/5 118/76/5 111/53/5
f 116/96/5 111/53/5 114/56/5
f 112/97/5 114/56/5 115/84/5
f 34/98/6 37/83/6 36/55/6
f 38/99/6 36/55/6 33/54/6
f 39/100/6 33/54/6 40/75/6
f 41/101/6 40/75/6 28/49/6
f 25/102/6 28/49/6 27/48/6
f 29/103/6 27/48/6 26/86/6
f 31/104/6 26/86/6 32/59/6
f 35/105/6 32/59/6 30/58/6
f 30/62/6 51/61/6 42/106/6
f 162/107/7 165/88/7 164/81/7
f 166/108/7 164/81/7 161/79/7
f 167/109/7 161/79/7 168/78/7
f 169/110/7 168/78/7 156/11/7
f 153/111/7 156/11/7 155/10/7
f 157/112/7 155/10/7 154/74/7
f 159/113/7 154/74/7 160/65/7
f 163/114/7 160/65/7 158/68/7
f 158/70/7 199/69/7 170/115/7
f 6/71/6 18/116/6 49/72/6
f 11/117/6 6/67/6 8/66/6
f 7/118/6 8/66/6 2/73/6
f 5/119/6 2/73/6 3/9/6
f 1/120/6 3/9/6 4/12/6
f 17/121/6 4/12/6 16/77/6
f 15/122/6 16/77/6 9/80/6
f 14/123/6 9/80/6 12/82/6
f 10/124/6 12/82/6 13/89/6
f 61/125/8 64/21/8 63/7/8
f 65/126/8 63/7/8 60/6/8
f 66/127/8 60/6/8 67/23/8
f 68/128/8 67/23/8 55/27/8
f 52/129/8 55/27/8 54/26/8
f 56/130/8 54/26/8 53/51/8
f 58/131/8 53/51/8 59/45/8
f 62/132/8 59/45/8 57/44/8
f 57/40/8 100/39/8 69/133/8
f 181/41/7 193/134/7 201/42/7
f 186/135/7 181/43/7 183/46/7
f 182/136/7 183/46/7 177/52/7
f 180/137/7 177/52/7 178/25/7
f 176/138/7 178/25/7 179/28/7
f 192/139/7 179/28/7 191/24/7
f 190/140/7 191/24/7 184/5/7
f 189/141/7 184/5/7 187/8/7
f 185/142/7 187/8/7 188/22/7
f 136/143/5 139/4/5 138/3/5
f 140/144/5 138/3/5 135/31/5
f 141/145/5 135/31/5 142/30/5
f 143/146/5 142/30/5 130/37/5
f 127/147/5 130/37/5 129/36/5
f 131/148/5 129/36/5 128/33/5
f 133/149/5 128/33/5 134/17/5
f 137/150/5 134/17/5 132/20/5
f 132/13/5 152/16/5 144/151/5
f 81/14/8 93/152/8 102/15/8
f 86/153/8 81/19/8 83/18/8
f 82/154/8 83/18/8 77/34/8
f 80/155/8 77/34/8 78/35/8
f 76/156/8 78/35/8 79/38/8
f 92/157/8 79/38/8 91/29/8
f 90/158/8 91/29/8 84/32/8
f 89/159/8 84/32/8 87/2/8
f 85/160/8 87/2/8 88/1/8
f 132/13/9 144/151/9 193/134/9 181/41/9
f 137/150/10 132/20/10 181/43/10 186/135/10
f 134/17/9 137/150/9 186/135/9 183/46/9
f 133/149/10 134/17/10 183/46/10 182/136/10
f 128/33/9 133/149/9 182/136/9 177/52/9
f 131/148/10 128/33/10 177/52/10 180/137/10
f 129/36/9 131/148/9 180/137/9 178/25/9
f 127/147/10 129/36/10 178/25/10 176/138/10
f 130/37/9 127/147/9 176/138/9 179/28/9
f 143/146/10 130/37/10 179/28/10 192/139/10
f 142/30/9 143/146/9 192/139/9 191/24/9
f 141/145/10 142/30/10 191/24/10 190/140/10
f 135/31/9 141/145/9 190/140/9 184/5/9
f 140/144/10 135/31/10 184/5/10 189/141/10
f 138/3/9 140/144/9 189/141/9 187/8/9
f 136/143/10 138/3/10 187/8/10 185/142/10
f 139/4/9 136/143/9 185/142/9 188/22/9
f 6/71/11 57/40/11 69/133/11 18/116/11
f 11/117/12 62/132/12 57/44/12 6/67/12
f 8/66/11 59/45/11 62/132/11 11/117/11
f 7/118/12 58/131/12 59/45/12 8/66/12
f 2/73/11 53/51/11 58/131/11 7/118/11
f 5/119/12 56/130/12 53/51/12 2/73/12
f 3/9/11 54/26/11 56/130/11 5/119/11
f 1/120/12 52/129/12 54/26/12 3/9/12
f 4/12/11 55/27/11 52/129/11 1/120/11
f 17/121/12 68/128/12 55/27/12 4/12/12
f 16/77/11 67/23/11 68/128/11 17/121/11
f 15/122/12 66/127/12 67/23/12 16/77/12
f 9/80/11 60/6/11 66/127/11 15/122/11
f 14/123/12 65/126/12 60/6/12 9/80/12
f 12/82/11 63/7/11 65/126/11 14/123/11
f 10/124/12 61/125/12 63/7/12 12/82/12
f 13/89/11 64/21/11 61/125/11 10/124/11
f 108/63/13 158/70/13 170/115/13 120/85/13
f 113/90/14 163/114/14 158/68/14 108/57/14
f 110/60/13 160/65/13 163/114/13 113/90/13
f 109/91/14 159/113/14 160/65/14 110/60/14
f 104/87/13 154/74/13 159/113/13 109/91/13
f 107/92/14 157/112/14 154/74/14 104/87/14
f 105/47/13 155/10/13 157/112/13 107/92/13
f 103/93/14 153/111/14 155/10/14 105/47/14
f 106/50/13 156/11/13 153/111/13 103/93/13
f 119/94/14 169/110/14 156/11/14 106/50/14
f 118/76/13 168/78/13 169/110/13 119/94/13
f 117/95/14 167/109/14 168/78/14 118/76/14
f 111/53/13 161/79/13 167/109/13 117/95/13
f 116/96/14 166/108/14 161/79/14 111/53/14
f 114/56/13 164/81/13 166/108/13 116/96/13
f 112/97/14 162/107/14 164/81/14 114/56/14
f 115/84/13 165/88/13 162/107/13 112/97/13
f 123/161/14 173/162/14 165/163/14 115/164/14
f 124/165/13 174/166/13 173/162/13 123/161/13
f 125/167/14 175/168/14 174/166/14 124/165/14
f 126/169/13 50/170/13 175/168/13 125/167/13
f 101/171/15 209/172/15 44/173/15
f 200/174/9 149/175/9 198/176/9 151/177/9
f 149/175/10 148/178/10 197/179/10 198/176/10
f 148/178/9 147/180/9 196/181/9 197/179/9
f 147/180/10 139/182/10 188/183/10 196/181/10
f 21/184/12 72/185/12 64/186/12 13/187/12
f 22/188/11 73/189/11 72/185/11 21/184/11
f 23/190/12 74/191/12 73/189/12 22/188/12
f 24/192/11 75/193/11 74/191/11 23/190/11
f 95/194/11 209/172/11 207/195/11
f 44/173/15 75/193/15 24/192/15 101/171/15
f 48/196/15 47/197/15 98/198/15 99/199/15
f 47/197/16 46/200/16 97/201/16 98/198/16
f 46/200/15 45/202/15 96/203/15 97/201/15
f 45/202/16 37/204/16 88/205/16 96/203/16
f 30/62/15 42/106/15 93/152/15 81/14/15
f 35/105/16 30/58/16 81/19/16 86/153/16
f 32/59/15 35/105/15 86/153/15 83/18/15
f 31/104/16 32/59/16 83/18/16 82/154/16
f 26/86/15 31/104/15 82/154/15 77/34/15
f 29/103/16 26/86/16 77/34/16 80/155/16
f 27/48/15 29/103/15 80/155/15 78/35/15
f 25/102/16 27/48/16 78/35/16 76/156/16
f 28/49/15 25/102/15 76/156/15 79/38/15
f 41/101/16 28/49/16 79/38/16 92/157/16
f 40/75/15 41/101/15 92/157/15 91/29/15
f 39/100/16 40/75/16 91/29/16 90/158/16
f 33/54/15 39/100/15 90/158/15 84/32/15
f 38/99/16 33/54/16 84/32/16 89/159/16
f 36/55/15 38/99/15 89/159/15 87/2/15
f 34/98/16 36/55/16 87/2/16 85/160/16
f 37/83/15 34/98/15 85/160/15 88/1/15
f 42/206/11 43/207/11 94/208/11 93/209/11
f 43/207/15 202/210/15 208/211/15 94/208/15
f 204/212/12 205/213/12 210/214/12
f 19/215/11 70/216/11 71/217/11 20/218/11
f 18/219/15 69/220/15 70/216/15 19/215/15
f 120/221/9 170/222/9 171/223/9 121/224/9
f 121/224/13 171/223/13 172/225/13 122/226/13
f 210/214/14 205/213/14 203/227/14
f 206/228/10 205/213/10 204/212/10
f 145/229/9 146/230/9 195/231/9 194/232/9
f 144/233/13 145/229/13 194/232/13 193/234/13
f 71/217/12 204/212/12 210/214/12 20/218/12
f 146/230/10 206/228/10 204/212/10 195/231/10
f 203/227/16 206/228/16 208/211/16 202/210/16
f 172/225/14 210/214/14 203/227/14 122/226/14
f 203/227/16 205/213/16 206/228/16
f 171/223/7 170/222/7 210/214/7 172/225/7
f 199/235/7 210/214/7 170/222/7
f 19/215/6 20/218/6 210/214/6 18/219/6
f 49/236/6 18/219/6 210/214/6
f 199/235/17 49/236/17 210/214/17
f 202/210/6 43/207/6 42/206/6
f 120/221/5 122/226/5 150/237/5
f 203/227/18 51/238/18 150/237/18
f 203/227/6 202/210/6 51/238/6
f 122/226/5 203/227/5 150/237/5
f 202/210/6 42/206/6 51/238/6
f 120/221/5 121/224/5 122/226/5
f 70/216/8 69/220/8 71/217/8
f 71/217/8 69/220/8 100/239/8
f 204/212/8 71/217/8 100/239/8
f 100/239/19 201/240/19 204/212/19
f 201/240/7 195/231/7 204/212/7
f 193/234/7 195/231/7 201/240/7
f 194/232/7 195/231/7 193/234/7
f 44/173/13 95/194/13 200/174/13 151/177/13
f 146/230/5 152/241/5 206/228/5
f 152/241/20 102/242/20 206/228/20
f 93/209/8 208/211/8 102/242/8
f 208/211/8 206/228/8 102/242/8
f 146/230/5 144/233/5 152/241/5
f 146/230/5 145/229/5 144/233/5
f 93/209/8 94/208/8 208/211/8
f 207/195/9 101/171/9 50/170/9 126/169/9
f 95/194/11 207/195/11 48/196/11 99/199/11
f 44/173/13 209/172/13 95/194/13
f 207/195/9 209/172/9 101/171/9
f 37/204/21 207/195/21 115/164/21
f 101/171/22 13/187/22 165/163/22
f 64/186/23 44/173/23 188/183/23
f 95/194/24 88/205/24 139/182/24
f 200/174/5 95/194/5 148/178/5 149/175/5
f 97/201/8 96/203/8 88/205/8
f 115/164/5 207/195/5 124/165/5
f 95/194/8 97/201/8 88/205/8
f 139/182/5 148/178/5 95/194/5
f 95/194/8 99/199/8 98/198/8 97/201/8
f 148/178/5 139/182/5 147/180/5
f 48/196/6 207/195/6 46/200/6 47/197/6
f 115/164/5 124/165/5 123/161/5
f 207/195/5 126/169/5 125/167/5 124/165/5
f 37/204/6 46/200/6 207/195/6
f 45/202/6 46/200/6 37/204/6
f 64/186/8 72/185/8 73/189/8
f 197/179/7 44/173/7 151/177/7 198/176/7
f 165/163/7 173/162/7 174/166/7
f 165/163/7 174/166/7 101/171/7
f 21/184/6 13/187/6 22/188/6
f 22/188/6 101/171/6 24/192/6 23/190/6
f 50/170/7 101/171/7 174/166/7 175/168/7
f 22/188/6 13/187/6 101/171/6
f 64/186/8 73/189/8 44/173/8
f 196/181/7 188/183/7 197/179/7
f 75/193/8 44/173/8 73/189/8 74/191/8
f 197/179/7 188/183/7 44/173/7
